<mxfile host="app.diagrams.net" agent="Mozilla/5.0 (Windows NT 10.0; Win64; x64) AppleWebKit/537.36 (KHTML, like Gecko) Chrome/134.0.0.0 Safari/537.36" version="26.1.1">
  <diagram name="PÃ¡gina-1" id="dkxS5sl50ttADxmvJFDx">
    <mxGraphModel dx="1434" dy="772" grid="1" gridSize="10" guides="1" tooltips="1" connect="1" arrows="1" fold="1" page="1" pageScale="1" pageWidth="827" pageHeight="1169" math="0" shadow="0">
      <root>
        <mxCell id="0" />
        <mxCell id="1" parent="0" />
        <mxCell id="8-AZueA8v5wxPj9abe2c-1" value="FIM" style="strokeWidth=2;html=1;shape=mxgraph.flowchart.start_1;whiteSpace=wrap;fillColor=#d5e8d4;strokeColor=#82b366;" vertex="1" parent="1">
          <mxGeometry x="350" y="710" width="100" height="60" as="geometry" />
        </mxCell>
        <mxCell id="8-AZueA8v5wxPj9abe2c-9" style="edgeStyle=orthogonalEdgeStyle;rounded=0;orthogonalLoop=1;jettySize=auto;html=1;exitX=0.5;exitY=1;exitDx=0;exitDy=0;exitPerimeter=0;entryX=0.5;entryY=0;entryDx=0;entryDy=0;" edge="1" parent="1" source="8-AZueA8v5wxPj9abe2c-2" target="8-AZueA8v5wxPj9abe2c-3">
          <mxGeometry relative="1" as="geometry" />
        </mxCell>
        <mxCell id="8-AZueA8v5wxPj9abe2c-2" value="INICIO" style="strokeWidth=2;html=1;shape=mxgraph.flowchart.start_1;whiteSpace=wrap;fillColor=#d5e8d4;strokeColor=#82b366;" vertex="1" parent="1">
          <mxGeometry x="350" y="30" width="100" height="60" as="geometry" />
        </mxCell>
        <mxCell id="8-AZueA8v5wxPj9abe2c-8" style="edgeStyle=orthogonalEdgeStyle;rounded=0;orthogonalLoop=1;jettySize=auto;html=1;exitX=0.5;exitY=1;exitDx=0;exitDy=0;entryX=0.5;entryY=0;entryDx=0;entryDy=0;" edge="1" parent="1" source="8-AZueA8v5wxPj9abe2c-3" target="8-AZueA8v5wxPj9abe2c-4">
          <mxGeometry relative="1" as="geometry" />
        </mxCell>
        <mxCell id="8-AZueA8v5wxPj9abe2c-3" value="NUMEROS[5]&lt;div&gt;SOMA-NUMERO = 0&lt;/div&gt;&lt;div&gt;MEDIA = 0&lt;/div&gt;" style="rounded=1;whiteSpace=wrap;html=1;absoluteArcSize=1;arcSize=14;strokeWidth=2;fillColor=#f5f5f5;fontColor=#333333;strokeColor=#666666;" vertex="1" parent="1">
          <mxGeometry x="310" y="120" width="180" height="50" as="geometry" />
        </mxCell>
        <mxCell id="8-AZueA8v5wxPj9abe2c-4" value="CONTADOR 1, 5, 1" style="shape=hexagon;perimeter=hexagonPerimeter2;whiteSpace=wrap;html=1;fixedSize=1;fillColor=#fff2cc;strokeColor=#d6b656;" vertex="1" parent="1">
          <mxGeometry x="340" y="200" width="120" height="80" as="geometry" />
        </mxCell>
        <mxCell id="8-AZueA8v5wxPj9abe2c-12" style="edgeStyle=orthogonalEdgeStyle;rounded=0;orthogonalLoop=1;jettySize=auto;html=1;exitX=0.5;exitY=1;exitDx=0;exitDy=0;" edge="1" parent="1" source="8-AZueA8v5wxPj9abe2c-5" target="8-AZueA8v5wxPj9abe2c-11">
          <mxGeometry relative="1" as="geometry" />
        </mxCell>
        <mxCell id="8-AZueA8v5wxPj9abe2c-5" value="NUMERO[CONTADOR]" style="html=1;strokeWidth=2;shape=manualInput;whiteSpace=wrap;rounded=1;size=26;arcSize=11;fillColor=#e1d5e7;strokeColor=#9673a6;" vertex="1" parent="1">
          <mxGeometry x="305" y="310" width="190" height="60" as="geometry" />
        </mxCell>
        <mxCell id="8-AZueA8v5wxPj9abe2c-7" style="edgeStyle=orthogonalEdgeStyle;rounded=0;orthogonalLoop=1;jettySize=auto;html=1;exitX=0.5;exitY=1;exitDx=0;exitDy=0;entryX=0.5;entryY=0.167;entryDx=0;entryDy=0;entryPerimeter=0;" edge="1" parent="1" source="8-AZueA8v5wxPj9abe2c-4" target="8-AZueA8v5wxPj9abe2c-5">
          <mxGeometry relative="1" as="geometry" />
        </mxCell>
        <mxCell id="8-AZueA8v5wxPj9abe2c-13" style="edgeStyle=orthogonalEdgeStyle;rounded=0;orthogonalLoop=1;jettySize=auto;html=1;exitX=0.5;exitY=1;exitDx=0;exitDy=0;entryX=0;entryY=0.5;entryDx=0;entryDy=0;" edge="1" parent="1" source="8-AZueA8v5wxPj9abe2c-11" target="8-AZueA8v5wxPj9abe2c-4">
          <mxGeometry relative="1" as="geometry">
            <Array as="points">
              <mxPoint x="400" y="460" />
              <mxPoint x="240" y="460" />
              <mxPoint x="240" y="240" />
            </Array>
          </mxGeometry>
        </mxCell>
        <mxCell id="8-AZueA8v5wxPj9abe2c-11" value="&lt;div&gt;SOMA-NUMERO = SOMA-NUMERO + NUMERO[CONTADOR]&lt;/div&gt;" style="rounded=1;whiteSpace=wrap;html=1;absoluteArcSize=1;arcSize=14;strokeWidth=2;fillColor=#f5f5f5;fontColor=#333333;strokeColor=#666666;" vertex="1" parent="1">
          <mxGeometry x="265" y="400" width="270" height="40" as="geometry" />
        </mxCell>
        <mxCell id="8-AZueA8v5wxPj9abe2c-18" style="edgeStyle=orthogonalEdgeStyle;rounded=0;orthogonalLoop=1;jettySize=auto;html=1;exitX=0.5;exitY=1;exitDx=0;exitDy=0;exitPerimeter=0;entryX=0.5;entryY=0;entryDx=0;entryDy=0;" edge="1" parent="1" source="8-AZueA8v5wxPj9abe2c-14" target="8-AZueA8v5wxPj9abe2c-17">
          <mxGeometry relative="1" as="geometry" />
        </mxCell>
        <mxCell id="8-AZueA8v5wxPj9abe2c-14" value="" style="strokeWidth=2;html=1;shape=mxgraph.flowchart.start_2;whiteSpace=wrap;fillColor=#f5f5f5;gradientColor=#b3b3b3;strokeColor=#666666;" vertex="1" parent="1">
          <mxGeometry x="380" y="510" width="40" height="40" as="geometry" />
        </mxCell>
        <mxCell id="8-AZueA8v5wxPj9abe2c-15" style="edgeStyle=orthogonalEdgeStyle;rounded=0;orthogonalLoop=1;jettySize=auto;html=1;exitX=1;exitY=0.5;exitDx=0;exitDy=0;entryX=1;entryY=0.5;entryDx=0;entryDy=0;entryPerimeter=0;" edge="1" parent="1" source="8-AZueA8v5wxPj9abe2c-4" target="8-AZueA8v5wxPj9abe2c-14">
          <mxGeometry relative="1" as="geometry">
            <Array as="points">
              <mxPoint x="550" y="240" />
              <mxPoint x="550" y="530" />
            </Array>
          </mxGeometry>
        </mxCell>
        <mxCell id="8-AZueA8v5wxPj9abe2c-16" value="MEDIA" style="strokeWidth=2;html=1;shape=mxgraph.flowchart.display;whiteSpace=wrap;fillColor=#e1d5e7;strokeColor=#9673a6;" vertex="1" parent="1">
          <mxGeometry x="350" y="620" width="100" height="60" as="geometry" />
        </mxCell>
        <mxCell id="8-AZueA8v5wxPj9abe2c-17" value="MEDIA = SOMA-NUMERO / 5" style="rounded=1;whiteSpace=wrap;html=1;absoluteArcSize=1;arcSize=14;strokeWidth=2;fillColor=#f5f5f5;fontColor=#333333;strokeColor=#666666;" vertex="1" parent="1">
          <mxGeometry x="310" y="564.5" width="180" height="40" as="geometry" />
        </mxCell>
        <mxCell id="8-AZueA8v5wxPj9abe2c-19" style="edgeStyle=orthogonalEdgeStyle;rounded=0;orthogonalLoop=1;jettySize=auto;html=1;exitX=0.5;exitY=1;exitDx=0;exitDy=0;entryX=0.5;entryY=0;entryDx=0;entryDy=0;entryPerimeter=0;" edge="1" parent="1" source="8-AZueA8v5wxPj9abe2c-17" target="8-AZueA8v5wxPj9abe2c-16">
          <mxGeometry relative="1" as="geometry" />
        </mxCell>
        <mxCell id="8-AZueA8v5wxPj9abe2c-20" style="edgeStyle=orthogonalEdgeStyle;rounded=0;orthogonalLoop=1;jettySize=auto;html=1;exitX=0.5;exitY=1;exitDx=0;exitDy=0;exitPerimeter=0;entryX=0.5;entryY=0;entryDx=0;entryDy=0;entryPerimeter=0;" edge="1" parent="1" source="8-AZueA8v5wxPj9abe2c-16" target="8-AZueA8v5wxPj9abe2c-1">
          <mxGeometry relative="1" as="geometry" />
        </mxCell>
      </root>
    </mxGraphModel>
  </diagram>
</mxfile>
